<svg width="349" height="349" xmlns="http://www.w3.org/2000/svg" xmlns:xlink="http://www.w3.org/1999/xlink" xml:space="preserve" overflow="hidden"><g transform="translate(-133 -86)"><path d="M402.506 124.778 386.994 124.778 386.994 93.7556C386.994 89.8778 390.872 86 394.75 86L394.75 86C398.628 86 402.506 89.8778 402.506 93.7556L402.506 124.778Z" fill="#282828"/><path d="M344.339 124.778 328.828 124.778 328.828 93.7556C328.828 89.8778 332.706 86 336.583 86L336.583 86C340.461 86 344.339 89.8778 344.339 93.7556L344.339 124.778Z" fill="#282828"/><path d="M286.172 124.778 270.661 124.778 270.661 93.7556C270.661 89.8778 274.539 86 278.417 86L278.417 86C282.294 86 286.172 89.8778 286.172 93.7556L286.172 124.778Z" fill="#282828"/><path d="M228.006 124.778 212.494 124.778 212.494 93.7556C212.494 89.8778 216.372 86 220.25 86L220.25 86C224.128 86 228.006 89.8778 228.006 93.7556L228.006 124.778Z" fill="#282828"/><path d="M394.75 435 394.75 435C390.872 435 386.994 431.122 386.994 427.244L386.994 396.222 402.506 396.222 402.506 427.244C402.506 431.122 398.628 435 394.75 435Z" fill="#282828"/><path d="M336.583 435 336.583 435C332.706 435 328.828 431.122 328.828 427.244L328.828 396.222 344.339 396.222 344.339 427.244C344.339 431.122 340.461 435 336.583 435Z" fill="#282828"/><path d="M278.417 435 278.417 435C274.539 435 270.661 431.122 270.661 427.244L270.661 396.222 286.172 396.222 286.172 427.244C286.172 431.122 282.294 435 278.417 435Z" fill="#282828"/><path d="M220.25 435 220.25 435C216.372 435 212.494 431.122 212.494 427.244L212.494 396.222 228.006 396.222 228.006 427.244C228.006 431.122 224.128 435 220.25 435Z" fill="#282828"/><path d="M171.778 165.494 171.778 181.006 140.756 181.006C136.878 181.006 133 177.128 133 173.25L133 173.25C133 169.372 136.878 165.494 140.756 165.494L171.778 165.494Z" fill="#282828"/><path d="M171.778 223.661 171.778 239.172 140.756 239.172C136.878 239.172 133 235.294 133 231.417L133 231.417C133 227.539 136.878 223.661 140.756 223.661L171.778 223.661Z" fill="#282828"/><path d="M171.778 281.828 171.778 297.339 140.756 297.339C136.878 297.339 133 293.461 133 289.583L133 289.583C133 285.706 136.878 281.828 140.756 281.828L171.778 281.828Z" fill="#282828"/><path d="M171.778 339.994 171.778 355.506 140.756 355.506C136.878 355.506 133 351.628 133 347.75L133 347.75C133 343.872 136.878 339.994 140.756 339.994L171.778 339.994Z" fill="#282828"/><path d="M482 173.25 482 173.25C482 177.128 478.122 181.006 474.244 181.006L443.222 181.006 443.222 165.494 474.244 165.494C478.122 165.494 482 169.372 482 173.25Z" fill="#282828"/><path d="M482 231.417 482 231.417C482 235.294 478.122 239.172 474.244 239.172L443.222 239.172 443.222 223.661 474.244 223.661C478.122 223.661 482 227.539 482 231.417Z" fill="#282828"/><path d="M482 289.583 482 289.583C482 293.461 478.122 297.339 474.244 297.339L443.222 297.339 443.222 281.828 474.244 281.828C478.122 281.828 482 285.706 482 289.583Z" fill="#282828"/><path d="M482 347.75 482 347.75C482 351.628 478.122 355.506 474.244 355.506L443.222 355.506 443.222 339.994 474.244 339.994C478.122 339.994 482 343.872 482 347.75Z" fill="#282828"/><path d="M425.772 396.222 189.228 396.222C179.533 396.222 171.778 388.467 171.778 378.772L171.778 142.228C171.778 132.533 179.533 124.778 189.228 124.778L425.772 124.778C435.467 124.778 443.222 132.533 443.222 142.228L443.222 378.772C443.222 388.467 435.467 396.222 425.772 396.222Z" stroke="#282828" stroke-width="5.81667" stroke-miterlimit="10" fill="#0068B5"/><path d="M367.606 324.483 247.394 324.483C245.456 324.483 245.456 322.544 245.456 322.544L245.456 200.394C245.456 198.456 247.394 198.456 247.394 198.456L369.544 198.456C371.483 198.456 371.483 200.394 371.483 200.394L371.483 322.544C371.483 322.544 369.544 324.483 367.606 324.483Z" stroke="#282828" stroke-width="5.81667" stroke-miterlimit="10" fill="#00C7FD"/></g></svg>