<svg width="666" height="666" xmlns="http://www.w3.org/2000/svg" xmlns:xlink="http://www.w3.org/1999/xlink" xml:space="preserve" overflow="hidden"><g transform="translate(-1374 58)"><path d="M1554.4 479.2C1525.9 479.2 1502.8 456 1502.8 427.6L1502.8 122.4C1502.8 93.9 1526 70.8 1554.4 70.8L1859.6 70.8C1888.1 70.8 1911.2 94 1911.2 122.4L1911.2 427.6C1911.2 456.1 1888 479.2 1859.6 479.2L1554.4 479.2Z" fill="#9880A6"/><path d="M1859.6 80.8C1882.5 80.8 1901.2 99.5 1901.2 122.4L1901.2 427.6C1901.2 450.5 1882.5 469.2 1859.6 469.2L1554.4 469.2C1531.5 469.2 1512.8 450.5 1512.8 427.6L1512.8 122.4C1512.8 99.5 1531.5 80.8 1554.4 80.8L1859.6 80.8M1859.6 60.8 1554.4 60.8C1520.4 60.8 1492.8 88.4 1492.8 122.4L1492.8 427.6C1492.8 461.6 1520.4 489.2 1554.4 489.2L1859.6 489.2C1893.6 489.2 1921.2 461.6 1921.2 427.6L1921.2 122.4C1921.2 88.4 1893.6 60.8 1859.6 60.8L1859.6 60.8Z" fill="#0B0C0B"/><path d="M1579.3 405.3C1577.9 405.3 1576.8 404.2 1576.8 402.8L1576.8 147.3C1576.8 145.9 1577.9 144.8 1579.3 144.8L1834.8 144.8C1836.2 144.8 1837.3 145.9 1837.3 147.3L1837.3 402.8C1837.3 404.2 1836.2 405.3 1834.8 405.3L1579.3 405.3Z" fill="#D8B9F1"/><path d="M1827.3 154.8 1827.3 395.3 1586.8 395.3 1586.8 154.8 1827.3 154.8M1834.8 134.8 1579.3 134.8C1572.4 134.8 1566.8 140.4 1566.8 147.3L1566.8 402.8C1566.8 409.7 1572.4 415.3 1579.3 415.3L1834.8 415.3C1841.7 415.3 1847.3 409.7 1847.3 402.8L1847.3 147.3C1847.3 140.4 1841.7 134.8 1834.8 134.8L1834.8 134.8Z" fill="#0B0C0B"/><path d="M1749.8 333.7 1648.3 232.3C1643.9 227.9 1643.9 220.8 1648.3 216.4L1648.3 216.4C1652.7 212 1659.8 212 1664.2 216.4L1765.6 317.8C1770 322.2 1770 329.3 1765.6 333.7L1765.6 333.7C1761.3 338.1 1754.1 338.1 1749.8 333.7Z" fill="#131415"/><path d="M1648.3 317.8 1749.7 216.4C1754.1 212 1761.2 212 1765.6 216.4L1765.6 216.4C1770 220.8 1770 227.9 1765.6 232.3L1664.3 333.7C1659.9 338.1 1652.8 338.1 1648.4 333.7L1648.4 333.7C1643.9 329.3 1643.9 322.1 1648.3 317.8Z" fill="#131415"/><path d="M1747.8 33.1 1747.8-46.7C1747.8-53 1752.8-58 1759-58L1759-58C1765.2-58 1770.3-53 1770.3-46.7L1770.3 33.1C1770.3 39.3 1765.3 44.4 1759 44.4L1759 44.4C1752.8 44.3 1747.8 39.3 1747.8 33.1Z" fill="#131415"/><path d="M1643.7 33.1 1643.7-46.7C1643.7-53 1648.7-58 1655-58L1655-58C1661.2-58 1666.3-53 1666.3-46.7L1666.3 33.1C1666.3 39.3 1661.3 44.4 1655 44.4L1655 44.4C1648.7 44.3 1643.7 39.3 1643.7 33.1Z" fill="#131415"/><path d="M1695.7 33.1 1695.7 9.7C1695.7 3.5 1700.7-1.6 1707-1.6L1707-1.6C1713.2-1.6 1718.3 3.4 1718.3 9.7L1718.3 33.1C1718.3 39.3 1713.3 44.4 1707 44.4L1707 44.4C1700.8 44.3 1695.7 39.3 1695.7 33.1Z" fill="#131415"/><path d="M1591.7 33.1 1591.7-23.5C1591.7-29.7 1596.7-34.8 1603-34.8L1603-34.8C1609.2-34.8 1614.3-29.8 1614.3-23.5L1614.3 33.1C1614.3 39.3 1609.3 44.4 1603 44.4L1603 44.4C1596.7 44.3 1591.7 39.3 1591.7 33.1Z" fill="#131415"/><path d="M1539.6 33.1 1539.6-1.9C1539.6-8.1 1544.6-13.2 1550.9-13.2L1550.9-13.2C1557.1-13.2 1562.2-8.2 1562.2-1.9L1562.2 33C1562.2 39.2 1557.2 44.3 1550.9 44.3L1550.9 44.3C1544.7 44.3 1539.6 39.3 1539.6 33.1Z" fill="#131415"/><path d="M1799.8 33.1 1799.8-23.6C1799.8-29.8 1804.8-34.9 1811.1-34.9L1811.1-34.9C1817.3-34.9 1822.4-29.9 1822.4-23.6L1822.4 33C1822.4 39.2 1817.4 44.3 1811.1 44.3L1811.1 44.3C1804.9 44.3 1799.8 39.3 1799.8 33.1Z" fill="#131415"/><path d="M1851.9 33.1 1851.9-1.9C1851.9-8.1 1856.9-13.2 1863.2-13.2L1863.2-13.2C1869.4-13.2 1874.5-8.2 1874.5-1.9L1874.5 33C1874.5 39.2 1869.5 44.3 1863.2 44.3L1863.2 44.3C1856.9 44.3 1851.9 39.3 1851.9 33.1Z" fill="#131415"/><path d="M1666.2 516.9 1666.2 596.7C1666.2 602.9 1661.2 608 1654.9 608L1654.9 608C1648.7 608 1643.6 603 1643.6 596.7L1643.6 516.9C1643.6 510.7 1648.6 505.6 1654.9 505.6L1654.9 505.6C1661.2 505.7 1666.2 510.7 1666.2 516.9Z" fill="#131415"/><path d="M1770.3 516.9 1770.3 596.7C1770.3 602.9 1765.3 608 1759 608L1759 608C1752.8 608 1747.7 603 1747.7 596.7L1747.7 516.9C1747.7 510.7 1752.7 505.6 1759 505.6L1759 505.6C1765.3 505.7 1770.3 510.7 1770.3 516.9Z" fill="#131415"/><path d="M1718.3 516.9 1718.3 540.3C1718.3 546.5 1713.3 551.6 1707 551.6L1707 551.6C1700.8 551.6 1695.7 546.6 1695.7 540.3L1695.7 516.9C1695.7 510.7 1700.7 505.6 1707 505.6L1707 505.6C1713.2 505.7 1718.3 510.7 1718.3 516.9Z" fill="#131415"/><path d="M1822.4 516.9 1822.4 573.5C1822.4 579.7 1817.4 584.8 1811.1 584.8L1811.1 584.8C1804.9 584.8 1799.8 579.8 1799.8 573.5L1799.8 516.9C1799.8 510.7 1804.8 505.6 1811.1 505.6L1811.1 505.6C1817.3 505.7 1822.4 510.7 1822.4 516.9Z" fill="#131415"/><path d="M1874.4 516.9 1874.4 551.8C1874.4 558 1869.4 563.1 1863.1 563.1L1863.1 563.1C1856.9 563.1 1851.8 558.1 1851.8 551.8L1851.8 516.9C1851.8 510.7 1856.8 505.6 1863.1 505.6L1863.1 505.6C1869.4 505.7 1874.4 510.7 1874.4 516.9Z" fill="#131415"/><path d="M1614.2 516.9 1614.2 573.5C1614.2 579.7 1609.2 584.8 1602.9 584.8L1602.9 584.8C1596.7 584.8 1591.6 579.8 1591.6 573.5L1591.6 516.9C1591.6 510.7 1596.6 505.6 1602.9 505.6L1602.9 505.6C1609.1 505.7 1614.2 510.7 1614.2 516.9Z" fill="#131415"/><path d="M1562.1 516.9 1562.1 551.8C1562.1 558 1557.1 563.1 1550.8 563.1L1550.8 563.1C1544.6 563.1 1539.5 558.1 1539.5 551.8L1539.5 516.9C1539.5 510.7 1544.5 505.6 1550.8 505.6L1550.8 505.6C1557.1 505.7 1562.1 510.7 1562.1 516.9Z" fill="#131415"/><path d="M1948.9 315.8 2028.7 315.8C2034.9 315.8 2040 320.8 2040 327.1L2040 327.1C2040 333.3 2035 338.4 2028.7 338.4L1948.9 338.4C1942.7 338.4 1937.6 333.4 1937.6 327.1L1937.6 327.1C1937.7 320.8 1942.7 315.8 1948.9 315.8Z" fill="#131415"/><path d="M1948.9 211.7 2028.7 211.7C2034.9 211.7 2040 216.7 2040 223L2040 223C2040 229.2 2035 234.3 2028.7 234.3L1948.9 234.3C1942.7 234.3 1937.6 229.3 1937.6 223L1937.6 223C1937.7 216.7 1942.7 211.7 1948.9 211.7Z" fill="#131415"/><path d="M1948.9 263.7 1972.3 263.7C1978.5 263.7 1983.6 268.7 1983.6 275L1983.6 275C1983.6 281.2 1978.6 286.3 1972.3 286.3L1948.9 286.3C1942.7 286.3 1937.6 281.3 1937.6 275L1937.6 275C1937.7 268.8 1942.7 263.7 1948.9 263.7Z" fill="#131415"/><path d="M1948.9 159.7 2005.5 159.7C2011.7 159.7 2016.8 164.7 2016.8 171L2016.8 171C2016.8 177.2 2011.8 182.3 2005.5 182.3L1948.9 182.3C1942.7 182.3 1937.6 177.3 1937.6 171L1937.6 171C1937.7 164.7 1942.7 159.7 1948.9 159.7Z" fill="#131415"/><path d="M1948.9 107.6 1983.8 107.6C1990 107.6 1995.1 112.6 1995.1 118.9L1995.1 118.9C1995.1 125.1 1990.1 130.2 1983.8 130.2L1948.9 130.2C1942.7 130.2 1937.6 125.2 1937.6 118.9L1937.6 118.9C1937.7 112.7 1942.7 107.6 1948.9 107.6Z" fill="#131415"/><path d="M1948.9 367.8 2005.5 367.8C2011.7 367.8 2016.8 372.8 2016.8 379.1L2016.8 379.1C2016.8 385.3 2011.8 390.4 2005.5 390.4L1948.9 390.4C1942.7 390.4 1937.6 385.4 1937.6 379.1L1937.6 379.1C1937.7 372.9 1942.7 367.8 1948.9 367.8Z" fill="#131415"/><path d="M1948.9 419.9 1983.8 419.9C1990 419.9 1995.1 424.9 1995.1 431.2L1995.1 431.2C1995.1 437.4 1990.1 442.5 1983.8 442.5L1948.9 442.5C1942.7 442.5 1937.6 437.5 1937.6 431.2L1937.6 431.2C1937.7 424.9 1942.7 419.9 1948.9 419.9Z" fill="#131415"/><path d="M1465.1 234.2 1385.3 234.2C1379 234.2 1374 229.2 1374 223L1374 223C1374 216.8 1379 211.7 1385.3 211.7L1465.1 211.7C1471.3 211.7 1476.4 216.7 1476.4 223L1476.4 223C1476.3 229.2 1471.3 234.2 1465.1 234.2Z" fill="#131415"/><path d="M1465.1 338.3 1385.3 338.3C1379 338.3 1374 333.3 1374 327L1374 327C1374 320.8 1379 315.7 1385.3 315.7L1465.1 315.7C1471.3 315.7 1476.4 320.7 1476.4 327L1476.4 327C1476.3 333.3 1471.3 338.3 1465.1 338.3Z" fill="#131415"/><path d="M1465.1 286.3 1441.7 286.3C1435.5 286.3 1430.4 281.3 1430.4 275L1430.4 275C1430.4 268.8 1435.4 263.7 1441.7 263.7L1465.1 263.7C1471.3 263.7 1476.4 268.7 1476.4 275L1476.4 275C1476.3 281.2 1471.3 286.3 1465.1 286.3Z" fill="#131415"/><path d="M1465.1 390.4 1408.4 390.4C1402.2 390.4 1397.1 385.4 1397.1 379.1L1397.1 379.1C1397.1 372.9 1402.1 367.8 1408.4 367.8L1465 367.8C1471.2 367.8 1476.3 372.8 1476.3 379.1L1476.3 379.1C1476.3 385.3 1471.3 390.4 1465.1 390.4Z" fill="#131415"/><path d="M1465.1 442.4 1430.2 442.4C1424 442.4 1418.9 437.4 1418.9 431.1L1418.9 431.1C1418.9 424.9 1423.9 419.8 1430.2 419.8L1465.1 419.8C1471.3 419.8 1476.4 424.8 1476.4 431.1L1476.4 431.1C1476.3 437.4 1471.3 442.4 1465.1 442.4Z" fill="#131415"/><path d="M1465.1 182.2 1408.4 182.2C1402.2 182.2 1397.1 177.2 1397.1 170.9L1397.1 170.9C1397.1 164.7 1402.1 159.6 1408.4 159.6L1465 159.6C1471.2 159.6 1476.3 164.6 1476.3 170.9L1476.3 170.9C1476.3 177.1 1471.3 182.2 1465.1 182.2Z" fill="#131415"/><path d="M1465.1 130.1 1430.1 130.1C1423.9 130.1 1418.8 125.1 1418.8 118.8L1418.8 118.8C1418.8 112.6 1423.8 107.5 1430.1 107.5L1465 107.5C1471.2 107.5 1476.3 112.5 1476.3 118.8L1476.3 118.8C1476.3 125.1 1471.3 130.1 1465.1 130.1Z" fill="#131415"/></g></svg>